<svg width="48" xmlns="http://www.w3.org/2000/svg" height="48" id="screenshot-47e70fec-f410-80c4-8002-2c47695ea9a1" viewBox="35 26574 40 40" style="-webkit-print-color-adjust::exact" xmlns:xlink="http://www.w3.org/1999/xlink" fill="none" version="1.1">
  <g id="shape-47e70fec-f410-80c4-8002-2c47695ea9a1">
    <defs>
      <clipPath id="frame-clip-47e70fec-f410-80c4-8002-2c47695ea9a1-render-183846" class="frame-clip frame-clip-def">
        <rect rx="20" ry="20" x="35" y="26574.00000000005" width="40" height="40" transform="matrix(1.000000, 0.000000, 0.000000, 1.000000, 0.000000, 0.000000)">
        </rect>
      </clipPath>
    </defs>
    <g class="frame-container-wrapper">
      <g class="frame-container-blur">
        <g class="frame-container-shadows">
          <g clip-path="url(#frame-clip-47e70fec-f410-80c4-8002-2c47695ea9a1-render-183846)" fill="none">
            <g class="fills" id="fills-47e70fec-f410-80c4-8002-2c47695ea9a1">
              <rect rx="20" ry="20" x="35" y="26574.00000000005" width="40" height="40" transform="matrix(1.000000, 0.000000, 0.000000, 1.000000, 0.000000, 0.000000)" class="frame-background" style="fill:#059fca;fill-opacity:1">
              </rect>
            </g>
            <g class="frame-children">
              <g id="shape-47e70fec-f410-80c4-8002-2c47695ea9a2" style="fill:#000000" height="48" width="48" rx="0" ry="0">
                <g id="shape-47e70fec-f410-80c4-8002-2c47695ea9a3" style="display:none">
                  <g class="fills" id="fills-47e70fec-f410-80c4-8002-2c47695ea9a3">
                    <rect rx="0" ry="0" x="43" y="26582.00000000005" transform="matrix(1.000000, 0.000000, 0.000000, 1.000000, 0.000000, 0.000000)" width="24" height="24" fill="none" style="fill:#cdf3fe;fill-opacity:1">
                    </rect>
                  </g>
                </g>
                <g id="shape-47e70fec-f410-80c4-8002-2c47695ea9a4">
                  <g class="fills" id="fills-47e70fec-f410-80c4-8002-2c47695ea9a4">
                    <path d="M55,26594.498046875C53.900390625,26594.498046875,53,26594.1484375,52.30078125,26593.44921875C51.599609375,26592.748046875,51.25,26591.84765625,51.25,26590.748046875C51.25,26589.6484375,51.599609375,26588.748046875,52.30078125,26588.048828125C53,26587.34765625,53.900390625,26586.998046875,55,26586.998046875C56.099609375,26586.998046875,57,26587.34765625,57.69921875,26588.048828125C58.400390625,26588.748046875,58.75,26589.6484375,58.75,26590.748046875C58.75,26591.84765625,58.400390625,26592.748046875,57.69921875,26593.44921875C57,26594.1484375,56.099609375,26594.498046875,55,26594.498046875ZM47,26602.5234375L47,26600.173828125C47,26599.541015625,47.158203125,26598.998046875,47.474609375,26598.548828125C47.791015625,26598.09765625,48.19921875,26597.755859375,48.69921875,26597.5234375C49.81640625,26597.0234375,50.88671875,26596.6484375,51.912109375,26596.3984375C52.9375,26596.1484375,53.966796875,26596.0234375,55,26596.0234375C56.033203125,26596.0234375,57.05859375,26596.15234375,58.07421875,26596.41015625C59.091796875,26596.669921875,60.158203125,26597.041015625,61.275390625,26597.5234375C61.791015625,26597.755859375,62.208984375,26598.09765625,62.525390625,26598.548828125C62.841796875,26598.998046875,63,26599.541015625,63,26600.173828125L63,26602.5234375ZM48.5,26601.0234375L61.5,26601.0234375L61.5,26600.173828125C61.5,26599.90625,61.419921875,26599.65234375,61.26171875,26599.41015625C61.103515625,26599.169921875,60.908203125,26598.990234375,60.67578125,26598.873046875C59.607421875,26598.357421875,58.6328125,26598.001953125,57.75,26597.810546875C56.8671875,26597.619140625,55.94921875,26597.5234375,55,26597.5234375C54.05078125,26597.5234375,53.125,26597.619140625,52.224609375,26597.810546875C51.32421875,26598.001953125,50.349609375,26598.357421875,49.30078125,26598.873046875C49.06640625,26598.990234375,48.875,26599.169921875,48.724609375,26599.41015625C48.57421875,26599.65234375,48.5,26599.90625,48.5,26600.173828125ZM55,26592.998046875C55.650390625,26592.998046875,56.1875,26592.78515625,56.61328125,26592.361328125C57.037109375,26591.935546875,57.25,26591.3984375,57.25,26590.748046875C57.25,26590.09765625,57.037109375,26589.560546875,56.61328125,26589.13671875C56.1875,26588.7109375,55.650390625,26588.498046875,55,26588.498046875C54.349609375,26588.498046875,53.8125,26588.7109375,53.38671875,26589.13671875C52.962890625,26589.560546875,52.75,26590.09765625,52.75,26590.748046875C52.75,26591.3984375,52.962890625,26591.935546875,53.38671875,26592.361328125C53.8125,26592.78515625,54.349609375,26592.998046875,55,26592.998046875ZM55,26590.748046875ZM55,26601.0234375Z" style="fill:#cdf3fe;fill-opacity:1">
                    </path>
                  </g>
                </g>
              </g>
            </g>
          </g>
        </g>
      </g>
    </g>
  </g>
</svg>
