<svg width="48" xmlns="http://www.w3.org/2000/svg" height="48" id="screenshot-a5da5223-b207-80a6-8002-3a52222880cf" viewBox="2740 240 48 48" style="-webkit-print-color-adjust::exact" xmlns:xlink="http://www.w3.org/1999/xlink" fill="none" version="1.1">
  <g id="shape-a5da5223-b207-80a6-8002-3a52222880cf">
    <g class="frame-container-wrapper">
      <g class="frame-container-blur">
        <g class="frame-container-shadows">
          <g fill="none">
            <g class="fills" id="fills-a5da5223-b207-80a6-8002-3a52222880cf">
              <rect rx="0" ry="0" x="2740" y="240" width="48" height="48" transform="matrix(1.000000, 0.000000, 0.000000, 1.000000, 0.000000, 0.000000)" class="frame-background">
              </rect>
            </g>
            <g class="frame-children">
              <g id="shape-b14aca37-0c14-80c1-8006-8e1a02810ebd" style="opacity:1">
                <g class="fills" id="fills-b14aca37-0c14-80c1-8006-8e1a02810ebd">
                  <rect rx="20" ry="20" x="2744" y="244" transform="matrix(1.000000, 0.000000, 0.000000, 1.000000, 0.000000, 0.000000)" width="40.0000000000004" height="40.000000000000455" style="fill:#059fca;fill-opacity:1">
                  </rect>
                </g>
              </g>
              <g id="shape-b14aca37-0c14-80c1-8006-8e1a02814904">
                <defs>
                  <clipPath id="frame-clip-b14aca37-0c14-80c1-8006-8e1a02814904-render-156788" class="frame-clip frame-clip-def">
                    <rect rx="0" ry="0" x="2744" y="243.9999999999991" width="40" height="40.000000000000455" transform="matrix(1.000000, 0.000000, 0.000000, 1.000000, 0.000000, 0.000000)">
                    </rect>
                  </clipPath>
                </defs>
                <g class="frame-container-wrapper" opacity="1">
                  <g class="frame-container-blur">
                    <g class="frame-container-shadows">
                      <g clip-path="url(#frame-clip-b14aca37-0c14-80c1-8006-8e1a02814904-render-156788)" fill="none">
                        <g class="fills" id="fills-b14aca37-0c14-80c1-8006-8e1a02814904">
                          <rect rx="0" ry="0" x="2744" y="243.9999999999991" width="40" height="40.000000000000455" transform="matrix(1.000000, 0.000000, 0.000000, 1.000000, 0.000000, 0.000000)" class="frame-background">
                          </rect>
                        </g>
                        <g class="frame-children">
                          <g id="shape-b14aca37-0c14-80c1-8006-8e1a02819884" style="fill:#000000" height="48" width="48" rx="0" ry="0">
                            <g id="shape-b14aca37-0c14-80c1-8006-8e1a02819885" style="display:none">
                              <g class="fills" id="fills-b14aca37-0c14-80c1-8006-8e1a02819885">

                              </g>
                            </g>
                            <g id="shape-b14aca37-0c14-80c1-8006-8e1a02819886">
                              <g class="fills" id="fills-b14aca37-0c14-80c1-8006-8e1a02819886">
                                <path d="M2761.699951171875,274L2761.199951171875,270.85009765625C2760.88330078125,270.7333984375,2760.550048828125,270.574951171875,2760.199951171875,270.375C2759.85009765625,270.175048828125,2759.541748046875,269.966552734375,2759.27490234375,269.75L2756.324951171875,271.10009765625L2754,267L2756.699951171875,265.02490234375C2756.666748046875,264.875,2756.645751953125,264.7041015625,2756.637451171875,264.512451171875C2756.629150390625,264.32080078125,2756.625,264.14990234375,2756.625,264C2756.625,263.85009765625,2756.629150390625,263.67919921875,2756.637451171875,263.487548828125C2756.645751953125,263.2958984375,2756.666748046875,263.125,2756.699951171875,262.97509765625L2754,261L2756.324951171875,256.89990234375L2759.27490234375,258.25C2759.541748046875,258.033447265625,2759.85009765625,257.824951171875,2760.199951171875,257.625C2760.550048828125,257.425048828125,2760.88330078125,257.27490234375,2761.199951171875,257.175048828125L2761.699951171875,254L2766.300048828125,254L2766.800048828125,257.14990234375C2767.11669921875,257.2666015625,2767.4541015625,257.4208984375,2767.8125,257.612548828125C2768.1708984375,257.80419921875,2768.47509765625,258.0166015625,2768.72509765625,258.25L2771.675048828125,256.89990234375L2774,261L2771.300048828125,262.925048828125C2771.333251953125,263.091552734375,2771.354248046875,263.270751953125,2771.362548828125,263.46240234375C2771.370849609375,263.654052734375,2771.375,263.833251953125,2771.375,264C2771.375,264.166748046875,2771.370849609375,264.341552734375,2771.362548828125,264.52490234375C2771.354248046875,264.708251953125,2771.333251953125,264.88330078125,2771.300048828125,265.050048828125L2774,267L2771.675048828125,271.10009765625L2768.72509765625,269.75C2768.458251953125,269.966552734375,2768.154052734375,270.17919921875,2767.8125,270.387451171875C2767.470947265625,270.595947265625,2767.13330078125,270.75,2766.800048828125,270.85009765625L2766.300048828125,274L2761.699951171875,274ZM2764,267.25C2764.89990234375,267.25,2765.666748046875,266.933349609375,2766.300048828125,266.300048828125C2766.933349609375,265.666748046875,2767.25,264.89990234375,2767.25,264C2767.25,263.10009765625,2766.933349609375,262.333251953125,2766.300048828125,261.699951171875C2765.666748046875,261.066650390625,2764.89990234375,260.75,2764,260.75C2763.10009765625,260.75,2762.333251953125,261.066650390625,2761.699951171875,261.699951171875C2761.066650390625,262.333251953125,2760.75,263.10009765625,2760.75,264C2760.75,264.89990234375,2761.066650390625,265.666748046875,2761.699951171875,266.300048828125C2762.333251953125,266.933349609375,2763.10009765625,267.25,2764,267.25ZM2764,265.75C2763.5166015625,265.75,2763.104248046875,265.5791015625,2762.762451171875,265.237548828125C2762.4208984375,264.895751953125,2762.25,264.4833984375,2762.25,264C2762.25,263.5166015625,2762.4208984375,263.104248046875,2762.762451171875,262.762451171875C2763.104248046875,262.4208984375,2763.5166015625,262.25,2764,262.25C2764.4833984375,262.25,2764.895751953125,262.4208984375,2765.237548828125,262.762451171875C2765.5791015625,263.104248046875,2765.75,263.5166015625,2765.75,264C2765.75,264.4833984375,2765.5791015625,264.895751953125,2765.237548828125,265.237548828125C2764.895751953125,265.5791015625,2764.4833984375,265.75,2764,265.75ZM2764,264ZM2762.89990234375,272.5L2765.10009765625,272.5L2765.449951171875,269.699951171875C2766,269.566650390625,2766.520751953125,269.3583984375,2767.012451171875,269.074951171875C2767.504150390625,268.791748046875,2767.949951171875,268.449951171875,2768.35009765625,268.050048828125L2771,269.199951171875L2772,267.39990234375L2769.64990234375,265.675048828125C2769.716552734375,265.3916015625,2769.770751953125,265.112548828125,2769.8125,264.83740234375C2769.854248046875,264.5625,2769.875,264.283447265625,2769.875,264C2769.875,263.716552734375,2769.8583984375,263.4375,2769.824951171875,263.16259765625C2769.791748046875,262.887451171875,2769.7333984375,262.6083984375,2769.64990234375,262.324951171875L2772,260.60009765625L2771,258.800048828125L2768.35009765625,259.949951171875C2767.966552734375,259.5166015625,2767.533447265625,259.154052734375,2767.050048828125,258.862548828125C2766.566650390625,258.57080078125,2766.033447265625,258.38330078125,2765.449951171875,258.300048828125L2765.10009765625,255.5L2762.89990234375,255.5L2762.550048828125,258.300048828125C2761.9833984375,258.416748046875,2761.4541015625,258.61669921875,2760.96240234375,258.89990234375C2760.470947265625,259.183349609375,2760.033447265625,259.533447265625,2759.64990234375,259.949951171875L2757,258.800048828125L2756,260.60009765625L2758.35009765625,262.324951171875C2758.283447265625,262.6083984375,2758.229248046875,262.887451171875,2758.1875,263.16259765625C2758.145751953125,263.4375,2758.125,263.716552734375,2758.125,264C2758.125,264.283447265625,2758.145751953125,264.5625,2758.1875,264.83740234375C2758.229248046875,265.112548828125,2758.283447265625,265.3916015625,2758.35009765625,265.675048828125L2756,267.39990234375L2757,269.199951171875L2759.64990234375,268.050048828125C2760.050048828125,268.449951171875,2760.495849609375,268.791748046875,2760.987548828125,269.074951171875C2761.479248046875,269.3583984375,2762,269.566650390625,2762.550048828125,269.699951171875L2762.89990234375,272.5Z" style="fill:#cdf3fe;fill-opacity:1">
                                </path>
                              </g>
                            </g>
                          </g>
                        </g>
                      </g>
                    </g>
                  </g>
                </g>
              </g>
            </g>
          </g>
        </g>
      </g>
    </g>
  </g>
</svg>
